<svg width="35" height="34" fill="none" xmlns="http://www.w3.org/2000/svg"><rect width="35" height="34" rx="10" fill="#2E5BFF"/><path d="M22.43 16.57h-5.25L16.145 19h-2.01L18.86 8.5h1.92L25.52 19h-2.04l-1.05-2.43zm-.645-1.53l-1.98-4.59-1.965 4.59h3.945z" fill="#fff"/><path d="M9 20.5l2.5 2.5m0 0l2.5-2.5M11.5 23V12" stroke="#fff" stroke-width="1.2"/><path d="M21.33 20v7h-1.28v-1.95h-1.87L16.88 27h-1.37l1.5-2.16c-.487-.18-.863-.463-1.13-.85-.26-.393-.39-.867-.39-1.42 0-.533.12-.993.36-1.38.24-.387.58-.68 1.02-.88.44-.207.957-.31 1.55-.31h2.91zm-2.87 1.1c-.533 0-.943.123-1.23.37-.28.247-.42.607-.42 1.08 0 .46.137.817.41 1.07.273.247.67.37 1.19.37h1.64V21.1h-1.59z" fill="#fff"/></svg>