<svg width="14" height="9" fill="none" xmlns="http://www.w3.org/2000/svg"><path d="M13.911 4.225C13.786 4.053 10.806 0 7 0 3.194 0 .214 4.053.089 4.225a.47.47 0 000 .55C.214 4.947 3.194 9 6.999 9c3.807 0 6.787-4.053 6.912-4.225a.468.468 0 000-.55zM7 8.07c-2.804 0-5.232-2.69-5.95-3.57C1.766 3.62 4.19.932 7 .932c2.803 0 5.231 2.69 5.95 3.57-.717.88-3.14 3.568-5.95 3.568z" fill="#96979B"/><path d="M7 1.707c-1.527 0-2.77 1.253-2.77 2.793 0 1.54 1.243 2.793 2.77 2.793S9.77 6.04 9.77 4.5c0-1.54-1.243-2.793-2.77-2.793zm0 4.655A1.856 1.856 0 015.154 4.5c0-1.027.828-1.862 1.846-1.862 1.018 0 1.846.835 1.846 1.862A1.856 1.856 0 017 6.362z" fill="#96979B"/></svg>