<svg width="16" height="19" viewBox="0 0 16 19" fill="none" xmlns="http://www.w3.org/2000/svg">
<path fill-rule="evenodd" clip-rule="evenodd" d="M8 0C4.88122 0 2.35294 2.48973 2.35294 5.56098V7.87805H3.29412V5.56098C3.29412 3.00161 5.40101 0.926829 8 0.926829C10.599 0.926829 12.7059 3.00161 12.7059 5.56098V7.87805H13.6471V5.56098C13.6471 2.48973 11.1188 0 8 0Z" fill="#96979B"/>
<path fill-rule="evenodd" clip-rule="evenodd" d="M8 12.5122C8.2599 12.5122 8.47059 12.3047 8.47059 12.0488C8.47059 11.7928 8.2599 11.5854 8 11.5854C7.7401 11.5854 7.52941 11.7928 7.52941 12.0488C7.52941 12.3047 7.7401 12.5122 8 12.5122ZM8 13.439C8.7797 13.439 9.41177 12.8166 9.41177 12.0488C9.41177 11.281 8.7797 10.6585 8 10.6585C7.2203 10.6585 6.58824 11.281 6.58824 12.0488C6.58824 12.8166 7.2203 13.439 8 13.439Z" fill="#96979B"/>
<path d="M7.52941 12.5122H8.47059V14.3659H7.52941V12.5122Z" fill="#96979B"/>
<path fill-rule="evenodd" clip-rule="evenodd" d="M12.2353 7.87805H3.76471C2.20531 7.87805 0.941176 9.12292 0.941176 10.6585V15.2927C0.941176 16.8283 2.20531 18.0732 3.76471 18.0732H12.2353C13.7947 18.0732 15.0588 16.8283 15.0588 15.2927V10.6585C15.0588 9.12292 13.7947 7.87805 12.2353 7.87805ZM3.76471 6.95122C1.68552 6.95122 0 8.61104 0 10.6585V15.2927C0 17.3402 1.68552 19 3.76471 19H12.2353C14.3145 19 16 17.3402 16 15.2927V10.6585C16 8.61104 14.3145 6.95122 12.2353 6.95122H3.76471Z" fill="#96979B"/>
</svg>
