<svg width="19" height="19" viewBox="0 0 19 19" fill="none" xmlns="http://www.w3.org/2000/svg">
<path fill-rule="evenodd" clip-rule="evenodd" d="M9.5 0.95C4.77797 0.95 0.95 4.77797 0.95 9.5C0.95 14.222 4.77797 18.05 9.5 18.05C14.222 18.05 18.05 14.222 18.05 9.5C18.05 4.77797 14.222 0.95 9.5 0.95ZM0 9.5C0 4.25329 4.25329 0 9.5 0C14.7467 0 19 4.25329 19 9.5C19 14.7467 14.7467 19 9.5 19C4.25329 19 0 14.7467 0 9.5ZM8.82825 9.5L6.78912 7.46088L7.46088 6.78912L9.5 8.82825L11.5391 6.78912L12.2109 7.46088L10.1718 9.5L12.2109 11.5391L11.5391 12.2109L9.5 10.1718L7.46088 12.2109L6.78912 11.5391L8.82825 9.5Z" fill="#FC5F07"/>
</svg>
