<svg width="19" height="19" viewBox="0 0 19 19" fill="none" xmlns="http://www.w3.org/2000/svg">
<path fill-rule="evenodd" clip-rule="evenodd" d="M9.5 0.95C4.77797 0.95 0.95 4.77797 0.95 9.5C0.95 14.222 4.77797 18.05 9.5 18.05C14.222 18.05 18.05 14.222 18.05 9.5C18.05 4.77797 14.222 0.95 9.5 0.95ZM0 9.5C0 4.25329 4.25329 0 9.5 0C14.7467 0 19 4.25329 19 9.5C19 14.7467 14.7467 19 9.5 19C4.25329 19 0 14.7467 0 9.5ZM12.2109 8.41088L9.36088 11.2609C9.17538 11.4464 8.87462 11.4464 8.68912 11.2609L6.78912 9.36088L7.46088 8.68912L9.025 10.2532L11.5391 7.73912L12.2109 8.41088Z" fill="#4CC5AB"/>
</svg>
