<svg width="14" height="14" fill="none" xmlns="http://www.w3.org/2000/svg"><path d="M11.813 0H2.187A2.19 2.19 0 000 2.188V3.28a.547.547 0 101.094 0V2.187c0-.603.49-1.093 1.093-1.093h9.626c.603 0 1.093.49 1.093 1.093v9.626c0 .603-.49 1.093-1.094 1.093H2.188c-.604 0-1.094-.49-1.094-1.094V10.72a.547.547 0 10-1.094 0v1.094A2.19 2.19 0 002.188 14h9.624A2.19 2.19 0 0014 11.812V2.188A2.19 2.19 0 0011.812 0z" fill="#424552"/><path d="M.48 5.812L2.525 3.77a.547.547 0 01.773.774L1.253 6.586a.547.547 0 000 .773l.003.003L3.3 9.432a.547.547 0 01-.778.769L.478 8.13A1.642 1.642 0 01.48 5.812z" fill="#424552"/><path d="M3.294 6.453h5.824a.547.547 0 110 1.094H3.294a.547.547 0 110-1.094z" fill="#424552"/></svg>