<svg width="40" height="40" viewBox="0 0 40 40" fill="none" xmlns="http://www.w3.org/2000/svg">
<path d="M20 0C8.97133 0 0 8.97133 0 20C0 31.0287 8.97133 40 20 40C31.0287 40 40 31.0271 40 20C40 8.97289 31.0287 0 20 0ZM20 36.9016C10.6816 36.9016 3.09836 29.3199 3.09836 20C3.09836 10.6801 10.6816 3.09836 20 3.09836C29.3199 3.09836 36.9016 10.6801 36.9016 20C36.9016 29.3199 29.3184 36.9016 20 36.9016Z" fill="#4CC5AB"/>
<path d="M29.1759 13.0441C28.5453 12.4709 27.5647 12.5159 26.9884 13.1495L17.5384 23.5554L12.9729 18.9141C12.3702 18.3037 11.3912 18.2944 10.7823 18.8955C10.172 19.495 10.1627 20.4756 10.7638 21.086L16.4787 26.8955C16.7715 27.1929 17.168 27.3587 17.5832 27.3587C17.5925 27.3587 17.6034 27.3587 17.6127 27.3602C18.0402 27.3509 18.443 27.1681 18.7296 26.8521L29.2811 15.2332C29.8559 14.598 29.8095 13.6189 29.1759 13.0441Z" fill="#4CC5AB"/>
</svg>
