<?xml version="1.0" encoding="UTF-8"?>
<!DOCTYPE svg PUBLIC "-//W3C//DTD SVG 1.1//EN" "http://www.w3.org/Graphics/SVG/1.1/DTD/svg11.dtd">
<svg xmlns="http://www.w3.org/2000/svg" version="1.1" width="677px" height="475px" style="shape-rendering:geometricPrecision; text-rendering:geometricPrecision; image-rendering:optimizeQuality; fill-rule:evenodd; clip-rule:evenodd" xmlns:xlink="http://www.w3.org/1999/xlink">
<g><path style="opacity:1" fill="#fdfdfd" d="M -0.5,-0.5 C 225.167,-0.5 450.833,-0.5 676.5,-0.5C 676.5,157.833 676.5,316.167 676.5,474.5C 450.833,474.5 225.167,474.5 -0.5,474.5C -0.5,316.167 -0.5,157.833 -0.5,-0.5 Z"/></g>
<g><path style="opacity:1" fill="#4f5da6" d="M 412.5,37.5 C 369.5,36.1667 326.5,36.1667 283.5,37.5C 282.957,37.44 282.624,37.1067 282.5,36.5C 326.167,35.1667 369.833,35.1667 413.5,36.5C 413.376,37.1067 413.043,37.44 412.5,37.5 Z"/></g>
<g><path style="opacity:1" fill="#e23e1f" d="M 542.5,37.5 C 542.5,38.1667 542.5,38.8333 542.5,39.5C 541.596,38.791 541.263,37.791 541.5,36.5C 504.761,36.1735 468.094,36.5068 431.5,37.5C 449.654,36.1671 468.154,35.5004 487,35.5C 505.846,35.5004 524.346,36.1671 542.5,37.5 Z"/></g>
<g><path style="opacity:1" fill="#324999" d="M 133.5,34.5 C 134.158,35.3984 134.824,36.3984 135.5,37.5C 137.667,36.2081 140,35.3747 142.5,35C 151.851,34.1679 161.184,34.3346 170.5,35.5C 165.387,47.904 157.72,58.404 147.5,67C 143.526,69.6021 139.193,71.1021 134.5,71.5C 134.5,74.5 134.5,77.5 134.5,80.5C 146.547,83.1156 155.713,89.7823 162,100.5C 165.088,105.675 167.921,111.008 170.5,116.5C 161.184,117.665 151.851,117.832 142.5,117C 139.97,116.621 137.637,115.787 135.5,114.5C 135.44,113.957 135.107,113.624 134.5,113.5C 133.173,129.662 133.173,145.662 134.5,161.5C 137.628,159.846 140.961,158.679 144.5,158C 153.186,157.168 161.853,157.335 170.5,158.5C 165.845,170.319 158.845,180.486 149.5,189C 145.224,191.971 140.558,194.137 135.5,195.5C 134.167,198.167 134.167,200.833 135.5,203.5C 145.085,206.213 152.918,211.546 159,219.5C 163.228,226.123 167.061,232.956 170.5,240C 161.887,241.505 153.22,241.839 144.5,241C 140.961,240.321 137.628,239.154 134.5,237.5C 133.173,253.338 133.173,269.338 134.5,285.5C 135.107,285.376 135.44,285.043 135.5,284.5C 137.637,283.213 139.97,282.379 142.5,282C 151.851,281.168 161.184,281.335 170.5,282.5C 165.376,294.939 157.709,305.439 147.5,314C 143.526,316.659 139.192,318.159 134.5,318.5C 134.5,321.5 134.5,324.5 134.5,327.5C 146.547,330.116 155.713,336.782 162,347.5C 165.088,352.675 167.921,358.008 170.5,363.5C 161.518,364.665 152.518,364.832 143.5,364C 140.618,363.728 137.951,362.894 135.5,361.5C 135.158,360.662 134.492,360.328 133.5,360.5C 132.596,361.209 132.263,362.209 132.5,363.5C 99.8333,363.5 67.1667,363.5 34.5,363.5C 34.5,254.5 34.5,145.5 34.5,36.5C 67.4066,36.1708 100.24,36.5042 133,37.5C 133.483,36.552 133.649,35.552 133.5,34.5 Z"/></g>
<g><path style="opacity:1" fill="#344999" d="M 173.5,73.5 C 170.833,73.5 168.167,73.5 165.5,73.5C 165.5,71.1667 165.5,68.8333 165.5,66.5C 166.366,49.4746 175.032,38.9746 191.5,35C 200.16,34.5002 208.827,34.3336 217.5,34.5C 213.049,49.2607 204.382,60.7607 191.5,69C 185.785,71.6495 179.785,73.1495 173.5,73.5 Z"/></g>
<g><path style="opacity:1" fill="#344999" d="M 239.5,34.5 C 248.167,34.5 256.833,34.5 265.5,34.5C 260.261,52.5701 248.928,65.0701 231.5,72C 225.213,73.1072 218.88,73.6072 212.5,73.5C 211.666,59.345 216.666,47.845 227.5,39C 231.432,36.9716 235.432,35.4716 239.5,34.5 Z"/></g>
<g><path style="opacity:1" fill="#df0223" d="M 542.5,39.5 C 543.462,43.3948 544.796,47.0615 546.5,50.5C 547.057,55.1646 548.39,59.4979 550.5,63.5C 551.057,68.1646 552.39,72.4979 554.5,76.5C 555.39,82.1662 557.057,87.4995 559.5,92.5C 560.057,97.1646 561.39,101.498 563.5,105.5C 564.057,110.165 565.39,114.498 567.5,118.5C 568.39,124.166 570.057,129.5 572.5,134.5C 573.057,139.165 574.39,143.498 576.5,147.5C 577.057,152.165 578.39,156.498 580.5,160.5C 581.057,165.165 582.39,169.498 584.5,173.5C 585.057,178.165 586.39,182.498 588.5,186.5C 589.39,192.166 591.057,197.5 593.5,202.5C 594.057,207.165 595.39,211.498 597.5,215.5C 598.057,220.165 599.39,224.498 601.5,228.5C 602.39,234.166 604.057,239.5 606.5,244.5C 607.057,249.165 608.39,253.498 610.5,257.5C 611.057,262.165 612.39,266.498 614.5,270.5C 615.057,275.165 616.39,279.498 618.5,283.5C 619.057,288.165 620.39,292.498 622.5,296.5C 623.39,302.166 625.057,307.5 627.5,312.5C 628.39,318.166 630.057,323.5 632.5,328.5C 633.057,333.165 634.39,337.498 636.5,341.5C 637.057,346.165 638.39,350.498 640.5,354.5C 640.723,358.162 641.723,361.495 643.5,364.5C 612.004,365.498 580.338,365.832 548.5,365.5C 547.656,362.655 546.99,359.655 546.5,356.5C 546.741,354.102 546.074,352.102 544.5,350.5C 541.028,337.61 538.028,324.61 535.5,311.5C 535.5,310.167 535.5,308.833 535.5,307.5C 503.167,307.5 470.833,307.5 438.5,307.5C 438.007,309.806 437.674,312.139 437.5,314.5C 433.032,331.374 429.032,348.374 425.5,365.5C 393.826,365.833 362.16,365.5 330.5,364.5C 331.785,361.979 332.452,359.313 332.5,356.5C 334.61,352.498 335.943,348.165 336.5,343.5C 338.61,339.498 339.943,335.165 340.5,330.5C 342.943,325.5 344.61,320.166 345.5,314.5C 347.943,309.5 349.61,304.166 350.5,298.5C 352.277,295.495 353.277,292.162 353.5,288.5C 355.61,284.498 356.943,280.165 357.5,275.5C 359.943,270.5 361.61,265.166 362.5,259.5C 364.61,255.498 365.943,251.165 366.5,246.5C 368.61,242.498 369.943,238.165 370.5,233.5C 372.943,228.5 374.61,223.166 375.5,217.5C 377.61,213.498 378.943,209.165 379.5,204.5C 381.61,200.498 382.943,196.165 383.5,191.5C 385.943,186.5 387.61,181.166 388.5,175.5C 390.61,171.498 391.943,167.165 392.5,162.5C 394.61,158.498 395.943,154.165 396.5,149.5C 398.61,145.498 399.943,141.165 400.5,136.5C 402.943,131.5 404.61,126.166 405.5,120.5C 407.61,116.498 408.943,112.165 409.5,107.5C 411.61,103.498 412.943,99.1646 413.5,94.5C 415.61,90.4979 416.943,86.1646 417.5,81.5C 419.943,76.4995 421.61,71.1662 422.5,65.5C 424.61,61.4979 425.943,57.1646 426.5,52.5C 428.61,48.4979 429.943,44.1646 430.5,39.5C 430.328,38.5084 430.662,37.8417 431.5,37.5C 468.094,36.5068 504.761,36.1735 541.5,36.5C 541.263,37.791 541.596,38.791 542.5,39.5 Z"/></g>
<g><path style="opacity:1" fill="#354798" d="M 412.5,37.5 C 412.579,38.9305 412.246,40.2638 411.5,41.5C 369.833,42.8333 328.167,42.8333 286.5,41.5C 285.476,40.1482 284.476,38.8149 283.5,37.5C 326.5,36.1667 369.5,36.1667 412.5,37.5 Z"/></g>
<g><path style="opacity:1" fill="#f29846" d="M 542.5,37.5 C 544.61,41.5021 545.943,45.8354 546.5,50.5C 544.796,47.0615 543.462,43.3948 542.5,39.5C 542.5,38.8333 542.5,38.1667 542.5,37.5 Z"/></g>
<g><path style="opacity:1" fill="#f29644" d="M 430.5,39.5 C 429.943,44.1646 428.61,48.4979 426.5,52.5C 427.057,47.8354 428.39,43.5021 430.5,39.5 Z"/></g>
<g><path style="opacity:1" fill="#d5d4e9" d="M 408.5,52.5 C 390.012,51.167 371.179,50.5004 352,50.5C 332.997,50.5 314.164,50.8334 295.5,51.5C 294.957,51.44 294.624,51.1067 294.5,50.5C 332.828,49.5001 371.161,49.1668 409.5,49.5C 409.737,50.791 409.404,51.791 408.5,52.5 Z"/></g>
<g><path style="opacity:1" fill="#3a4b9a" d="M 408.5,52.5 C 407.699,54.0418 407.366,55.7085 407.5,57.5C 371.832,57.6667 336.165,57.5 300.5,57C 298.627,55.2962 296.96,53.4628 295.5,51.5C 314.164,50.8334 332.997,50.5 352,50.5C 371.179,50.5004 390.012,51.167 408.5,52.5 Z"/></g>
<g><path style="opacity:1" fill="#f19643" d="M 546.5,50.5 C 548.61,54.5021 549.943,58.8354 550.5,63.5C 548.39,59.4979 547.057,55.1646 546.5,50.5 Z"/></g>
<g><path style="opacity:1" fill="#f19441" d="M 426.5,52.5 C 425.943,57.1646 424.61,61.4979 422.5,65.5C 423.057,60.8354 424.39,56.5021 426.5,52.5 Z"/></g>
<g><path style="opacity:1" fill="#35499a" d="M 264.5,59.5 C 280.522,57.3471 292.856,63.0138 301.5,76.5C 292.291,89.4458 279.957,94.6125 264.5,92C 253.315,86.8141 250.148,78.6474 255,67.5C 257.775,64.2203 260.942,61.5537 264.5,59.5 Z"/></g>
<g><path style="opacity:1" fill="#3e4d9c" d="M 308.5,66.5 C 340.331,65.3359 372.331,65.1693 404.5,66C 403.331,68.0065 402.665,70.1732 402.5,72.5C 372.826,72.8332 343.159,72.4998 313.5,71.5C 312.145,69.4788 310.479,67.8121 308.5,66.5 Z"/></g>
<g><path style="opacity:1" fill="#f19341" d="M 550.5,63.5 C 552.61,67.5021 553.943,71.8354 554.5,76.5C 552.39,72.4979 551.057,68.1646 550.5,63.5 Z"/></g>
<g><path style="opacity:1" fill="#f29745" d="M 422.5,65.5 C 421.61,71.1662 419.943,76.4995 417.5,81.5C 418.39,75.8338 420.057,70.5005 422.5,65.5 Z"/></g>
<g><path style="opacity:1" fill="#bebedd" d="M 165.5,66.5 C 165.5,68.8333 165.5,71.1667 165.5,73.5C 168.167,73.5 170.833,73.5 173.5,73.5C 170.713,74.4767 167.713,74.81 164.5,74.5C 164.194,71.6146 164.527,68.9479 165.5,66.5 Z"/></g>
<g><path style="opacity:1" fill="#8e91c4" d="M 313.5,80.5 C 342.336,79.1704 371.336,79.1704 400.5,80.5C 400.376,81.1067 400.043,81.44 399.5,81.5C 371.005,80.502 342.338,80.1687 313.5,80.5 Z"/></g>
<g><path style="opacity:1" fill="#f19645" d="M 554.5,76.5 C 556.943,81.5005 558.61,86.8338 559.5,92.5C 557.057,87.4995 555.39,82.1662 554.5,76.5 Z"/></g>
<g><path style="opacity:1" fill="#354999" d="M 164.5,78.5 C 181.986,77.0399 196.152,83.0399 207,96.5C 211.1,103.036 214.933,109.702 218.5,116.5C 209.518,117.665 200.518,117.832 191.5,117C 181.151,115.309 173.651,109.809 169,100.5C 166.281,93.4063 164.781,86.073 164.5,78.5 Z"/></g>
<g><path style="opacity:1" fill="#354999" d="M 212.5,78.5 C 231.388,77.0284 246.221,84.0284 257,99.5C 260.654,105.139 263.487,111.139 265.5,117.5C 256.161,117.666 246.827,117.5 237.5,117C 222.899,112.688 214.732,102.855 213,87.5C 212.502,84.5184 212.335,81.5184 212.5,78.5 Z"/></g>
<g><path style="opacity:1" fill="#324697" d="M 313.5,80.5 C 342.338,80.1687 371.005,80.502 399.5,81.5C 398.976,83.3057 398.309,84.9724 397.5,86.5C 367.995,86.8314 338.662,86.4981 309.5,85.5C 310.833,83.8333 312.167,82.1667 313.5,80.5 Z"/></g>
<g><path style="opacity:1" fill="#f29846" d="M 417.5,81.5 C 416.943,86.1646 415.61,90.4979 413.5,94.5C 414.057,89.8354 415.39,85.5021 417.5,81.5 Z"/></g>
<g><path style="opacity:1" fill="#a5a6cf" d="M 309.5,85.5 C 338.662,86.4981 367.995,86.8314 397.5,86.5C 367.997,87.8297 338.331,87.8297 308.5,86.5C 308.624,85.8933 308.957,85.56 309.5,85.5 Z"/></g>
<g><path style="opacity:1" fill="#6e75b3" d="M 300.5,95.5 C 332.003,94.1701 363.669,94.1701 395.5,95.5C 395.376,96.1067 395.043,96.44 394.5,96.5C 363.338,95.5018 332.004,95.1685 300.5,95.5 Z"/></g>
<g><path style="opacity:1" fill="#f29745" d="M 559.5,92.5 C 561.61,96.5021 562.943,100.835 563.5,105.5C 561.39,101.498 560.057,97.1646 559.5,92.5 Z"/></g>
<g><path style="opacity:1" fill="#334798" d="M 300.5,95.5 C 332.004,95.1685 363.338,95.5018 394.5,96.5C 393.962,98.1172 393.629,99.7839 393.5,101.5C 360.662,101.832 327.996,101.498 295.5,100.5C 296.806,98.5273 298.473,96.8606 300.5,95.5 Z"/></g>
<g><path style="opacity:1" fill="#f19543" d="M 413.5,94.5 C 412.943,99.1646 411.61,103.498 409.5,107.5C 410.057,102.835 411.39,98.5021 413.5,94.5 Z"/></g>
<g><path style="opacity:1" fill="#cfcfe6" d="M 295.5,100.5 C 327.996,101.498 360.662,101.832 393.5,101.5C 360.664,102.83 327.664,102.83 294.5,101.5C 294.624,100.893 294.957,100.56 295.5,100.5 Z"/></g>
<g><path style="opacity:1" fill="#f19542" d="M 563.5,105.5 C 565.61,109.502 566.943,113.835 567.5,118.5C 565.39,114.498 564.057,110.165 563.5,105.5 Z"/></g>
<g><path style="opacity:1" fill="#4b59a3" d="M 287.5,110.5 C 321.669,109.17 356.002,109.17 390.5,110.5C 390.376,111.107 390.043,111.44 389.5,111.5C 355.671,110.502 321.671,110.168 287.5,110.5 Z"/></g>
<g><path style="opacity:1" fill="#f19341" d="M 409.5,107.5 C 408.943,112.165 407.61,116.498 405.5,120.5C 406.057,115.835 407.39,111.502 409.5,107.5 Z"/></g>
<g><path style="opacity:1" fill="#324798" d="M 287.5,110.5 C 321.671,110.168 355.671,110.502 389.5,111.5C 389.567,112.959 389.234,114.292 388.5,115.5C 353.329,115.832 318.329,115.498 283.5,114.5C 284.5,112.833 285.833,111.5 287.5,110.5 Z"/></g>
<g><path style="opacity:1" fill="#757ab7" d="M 135.5,114.5 C 134.504,129.991 134.17,145.658 134.5,161.5C 133.173,145.662 133.173,129.662 134.5,113.5C 135.107,113.624 135.44,113.957 135.5,114.5 Z"/></g>
<g><path style="opacity:1" fill="#4d5ba5" d="M 283.5,114.5 C 318.329,115.498 353.329,115.832 388.5,115.5C 353.331,116.83 317.998,116.83 282.5,115.5C 282.624,114.893 282.957,114.56 283.5,114.5 Z"/></g>
<g><path style="opacity:1" fill="#f09836" d="M 488.5,119.5 C 487.833,118.5 487.167,117.5 486.5,116.5C 486.167,116.5 485.833,116.5 485.5,116.5C 485.709,115.078 486.209,113.745 487,112.5C 487.977,114.74 488.477,117.073 488.5,119.5 Z"/></g>
<g><path style="opacity:1" fill="#fffcfa" d="M 486.5,116.5 C 487.167,117.5 487.833,118.5 488.5,119.5C 492.143,133.406 495.476,147.406 498.5,161.5C 498.565,164.428 499.232,167.095 500.5,169.5C 500.41,172.152 501.076,174.485 502.5,176.5C 502.325,178.621 502.659,180.621 503.5,182.5C 503.41,185.152 504.076,187.485 505.5,189.5C 507.519,199.575 509.852,209.575 512.5,219.5C 512.259,221.898 512.926,223.898 514.5,225.5C 515.482,228.763 516.149,232.097 516.5,235.5C 516.833,238.167 517.167,240.833 517.5,243.5C 496.823,243.833 476.156,243.5 455.5,242.5C 457.308,236.937 458.641,231.27 459.5,225.5C 464.143,207.594 468.476,189.594 472.5,171.5C 473.924,169.485 474.59,167.152 474.5,164.5C 474.325,162.379 474.659,160.379 475.5,158.5C 476.924,156.485 477.59,154.152 477.5,151.5C 477.5,151.167 477.5,150.833 477.5,150.5C 478.924,148.485 479.59,146.152 479.5,143.5C 480.565,136.573 482.232,129.906 484.5,123.5C 485.924,121.485 486.59,119.152 486.5,116.5 Z"/></g>
<g><path style="opacity:1" fill="#f29745" d="M 567.5,118.5 C 569.943,123.5 571.61,128.834 572.5,134.5C 570.057,129.5 568.39,124.166 567.5,118.5 Z"/></g>
<g><path style="opacity:1" fill="#fbce90" d="M 485.5,116.5 C 485.833,116.5 486.167,116.5 486.5,116.5C 486.59,119.152 485.924,121.485 484.5,123.5C 484.674,121.139 485.007,118.806 485.5,116.5 Z"/></g>
<g><path style="opacity:1" fill="#f19544" d="M 405.5,120.5 C 404.61,126.166 402.943,131.5 400.5,136.5C 401.39,130.834 403.057,125.5 405.5,120.5 Z"/></g>
<g><path style="opacity:1" fill="#f29947" d="M 572.5,134.5 C 574.61,138.502 575.943,142.835 576.5,147.5C 574.39,143.498 573.057,139.165 572.5,134.5 Z"/></g>
<g><path style="opacity:1" fill="#f19744" d="M 400.5,136.5 C 399.943,141.165 398.61,145.498 396.5,149.5C 397.057,144.835 398.39,140.502 400.5,136.5 Z"/></g>
<g><path style="opacity:1" fill="#f19e47" d="M 479.5,143.5 C 479.59,146.152 478.924,148.485 477.5,150.5C 477.41,147.848 478.076,145.515 479.5,143.5 Z"/></g>
<g><path style="opacity:1" fill="#f19644" d="M 576.5,147.5 C 578.61,151.502 579.943,155.835 580.5,160.5C 578.39,156.498 577.057,152.165 576.5,147.5 Z"/></g>
<g><path style="opacity:1" fill="#f19543" d="M 396.5,149.5 C 395.943,154.165 394.61,158.498 392.5,162.5C 393.057,157.835 394.39,153.502 396.5,149.5 Z"/></g>
<g><path style="opacity:1" fill="#7d81bb" d="M 192.5,158.5 C 201.009,157.179 209.675,157.179 218.5,158.5C 218.376,159.107 218.043,159.44 217.5,159.5C 209.35,158.507 201.017,158.174 192.5,158.5 Z"/></g>
<g><path style="opacity:1" fill="#f19940" d="M 477.5,151.5 C 477.59,154.152 476.924,156.485 475.5,158.5C 475.41,155.848 476.076,153.515 477.5,151.5 Z"/></g>
<g><path style="opacity:1" fill="#344999" d="M 192.5,158.5 C 201.017,158.174 209.35,158.507 217.5,159.5C 212.41,173.861 203.41,185.027 190.5,193C 185.993,194.893 181.327,196.059 176.5,196.5C 172.833,196.5 169.167,196.5 165.5,196.5C 165.5,194.167 165.5,191.833 165.5,189.5C 166.367,171.972 175.367,161.639 192.5,158.5 Z"/></g>
<g><path style="opacity:1" fill="#364a9a" d="M 223.5,196.5 C 220.167,196.5 216.833,196.5 213.5,196.5C 213.5,193.5 213.5,190.5 213.5,187.5C 215.352,171.147 224.352,161.314 240.5,158C 248.827,157.5 257.16,157.334 265.5,157.5C 260.556,174.891 249.889,187.391 233.5,195C 230.207,195.826 226.874,196.326 223.5,196.5 Z"/></g>
<g><path style="opacity:1" fill="#424f9d" d="M 282.5,159.5 C 313.502,159.333 344.502,159.5 375.5,160C 374.331,162.007 373.665,164.173 373.5,166.5C 344.831,166.667 316.165,166.5 287.5,166C 285.21,164.223 283.543,162.056 282.5,159.5 Z"/></g>
<g><path style="opacity:1" fill="#f19442" d="M 580.5,160.5 C 582.61,164.502 583.943,168.835 584.5,173.5C 582.39,169.498 581.057,165.165 580.5,160.5 Z"/></g>
<g><path style="opacity:1" fill="#f4a855" d="M 498.5,161.5 C 500.04,163.838 500.706,166.505 500.5,169.5C 499.232,167.095 498.565,164.428 498.5,161.5 Z"/></g>
<g><path style="opacity:1" fill="#f09240" d="M 392.5,162.5 C 391.943,167.165 390.61,171.498 388.5,175.5C 389.057,170.835 390.39,166.502 392.5,162.5 Z"/></g>
<g><path style="opacity:1" fill="#f5ae5b" d="M 474.5,164.5 C 474.59,167.152 473.924,169.485 472.5,171.5C 472.41,168.848 473.076,166.515 474.5,164.5 Z"/></g>
<g><path style="opacity:1" fill="#3d4d9c" d="M 369.5,179.5 C 346.575,180.489 323.575,180.822 300.5,180.5C 298.856,178.519 297.19,176.519 295.5,174.5C 320.491,173.5 345.491,173.167 370.5,173.5C 370.483,175.565 370.15,177.565 369.5,179.5 Z"/></g>
<g><path style="opacity:1" fill="#f19a42" d="M 500.5,169.5 C 501.924,171.515 502.59,173.848 502.5,176.5C 501.076,174.485 500.41,172.152 500.5,169.5 Z"/></g>
<g><path style="opacity:1" fill="#f19240" d="M 584.5,173.5 C 586.61,177.502 587.943,181.835 588.5,186.5C 586.39,182.498 585.057,178.165 584.5,173.5 Z"/></g>
<g><path style="opacity:1" fill="#f19543" d="M 388.5,175.5 C 387.61,181.166 385.943,186.5 383.5,191.5C 384.39,185.834 386.057,180.5 388.5,175.5 Z"/></g>
<g><path style="opacity:1" fill="#b8b8d9" d="M 369.5,179.5 C 358.353,180.832 346.853,181.499 335,181.5C 323.328,181.5 311.828,181.167 300.5,180.5C 323.575,180.822 346.575,180.489 369.5,179.5 Z"/></g>
<g><path style="opacity:1" fill="#354999" d="M 266.5,182.5 C 282.044,181.35 293.544,187.35 301,200.5C 290.991,214.602 277.824,219.102 261.5,214C 251.402,206.644 250.069,197.978 257.5,188C 260.263,185.626 263.263,183.792 266.5,182.5 Z"/></g>
<g><path style="opacity:1" fill="#6069ad" d="M 365.5,190.5 C 346.833,189.167 328.167,189.167 309.5,190.5C 308.957,190.44 308.624,190.107 308.5,189.5C 327.833,188.167 347.167,188.167 366.5,189.5C 366.376,190.107 366.043,190.44 365.5,190.5 Z"/></g>
<g><path style="opacity:1" fill="#f6af5c" d="M 503.5,182.5 C 504.924,184.515 505.59,186.848 505.5,189.5C 504.076,187.485 503.41,185.152 503.5,182.5 Z"/></g>
<g><path style="opacity:1" fill="#f19543" d="M 588.5,186.5 C 590.943,191.5 592.61,196.834 593.5,202.5C 591.057,197.5 589.39,192.166 588.5,186.5 Z"/></g>
<g><path style="opacity:1" fill="#354697" d="M 309.5,190.5 C 328.167,189.167 346.833,189.167 365.5,190.5C 364.962,192.117 364.629,193.784 364.5,195.5C 347.497,195.667 330.497,195.5 313.5,195C 311.93,193.603 310.596,192.103 309.5,190.5 Z"/></g>
<g><path style="opacity:1" fill="#f19644" d="M 383.5,191.5 C 382.943,196.165 381.61,200.498 379.5,204.5C 380.057,199.835 381.39,195.502 383.5,191.5 Z"/></g>
<g><path style="opacity:1" fill="#888bc0" d="M 165.5,189.5 C 165.5,191.833 165.5,194.167 165.5,196.5C 169.167,196.5 172.833,196.5 176.5,196.5C 172.702,197.483 168.702,197.817 164.5,197.5C 164.194,194.615 164.527,191.948 165.5,189.5 Z"/></g>
<g><path style="opacity:1" fill="#8084bc" d="M 213.5,187.5 C 213.5,190.5 213.5,193.5 213.5,196.5C 216.833,196.5 220.167,196.5 223.5,196.5C 220.038,197.482 216.371,197.815 212.5,197.5C 212.187,193.958 212.521,190.625 213.5,187.5 Z"/></g>
<g><path style="opacity:1" fill="#314395" d="M 133.5,34.5 C 133.649,35.552 133.483,36.552 133,37.5C 100.24,36.5042 67.4066,36.1708 34.5,36.5C 34.5,145.5 34.5,254.5 34.5,363.5C 67.1667,363.5 99.8333,363.5 132.5,363.5C 132.263,362.209 132.596,361.209 133.5,360.5C 133.5,361.833 133.5,363.167 133.5,364.5C 99.8333,364.5 66.1667,364.5 32.5,364.5C 32.5,254.5 32.5,144.5 32.5,34.5C 66.1667,34.5 99.8333,34.5 133.5,34.5 Z"/></g>
<g><path style="opacity:1" fill="#888bc0" d="M 174.5,202.5 C 171.5,202.5 168.5,202.5 165.5,202.5C 165.5,204.5 165.5,206.5 165.5,208.5C 164.532,206.393 164.198,204.059 164.5,201.5C 168.042,201.187 171.375,201.521 174.5,202.5 Z"/></g>
<g><path style="opacity:1" fill="#7c81ba" d="M 221.5,202.5 C 218.833,202.5 216.167,202.5 213.5,202.5C 213.5,204.833 213.5,207.167 213.5,209.5C 212.527,207.052 212.194,204.385 212.5,201.5C 215.713,201.19 218.713,201.523 221.5,202.5 Z"/></g>
<g><path style="opacity:1" fill="#354999" d="M 174.5,202.5 C 191.363,204.182 203.863,212.515 212,227.5C 214.119,231.402 215.952,235.402 217.5,239.5C 215.167,240.167 212.833,240.833 210.5,241.5C 198.708,242.975 187.708,240.808 177.5,235C 169.934,227.809 165.934,218.975 165.5,208.5C 165.5,206.5 165.5,204.5 165.5,202.5C 168.5,202.5 171.5,202.5 174.5,202.5 Z"/></g>
<g><path style="opacity:1" fill="#354999" d="M 221.5,202.5 C 237.615,203.307 249.782,210.64 258,224.5C 261.321,229.474 263.821,234.807 265.5,240.5C 257.182,241.407 248.849,241.573 240.5,241C 223.441,237.439 214.441,226.939 213.5,209.5C 213.5,207.167 213.5,204.833 213.5,202.5C 216.167,202.5 218.833,202.5 221.5,202.5 Z"/></g>
<g><path style="opacity:1" fill="#344898" d="M 359.5,209.5 C 342.658,209.83 325.992,209.497 309.5,208.5C 310.933,207.167 312.267,205.667 313.5,204C 329.51,203.167 345.51,203.334 361.5,204.5C 360.826,206.195 360.159,207.862 359.5,209.5 Z"/></g>
<g><path style="opacity:1" fill="#f29544" d="M 593.5,202.5 C 595.61,206.502 596.943,210.835 597.5,215.5C 595.39,211.498 594.057,207.165 593.5,202.5 Z"/></g>
<g><path style="opacity:1" fill="#f19442" d="M 379.5,204.5 C 378.943,209.165 377.61,213.498 375.5,217.5C 376.057,212.835 377.39,208.502 379.5,204.5 Z"/></g>
<g><path style="opacity:1" fill="#5d67ab" d="M 309.5,208.5 C 325.992,209.497 342.658,209.83 359.5,209.5C 342.662,210.827 325.662,210.827 308.5,209.5C 308.624,208.893 308.957,208.56 309.5,208.5 Z"/></g>
<g><path style="opacity:1" fill="#c1c0dd" d="M 300.5,218.5 C 319.326,217.503 338.326,217.17 357.5,217.5C 357.737,218.791 357.404,219.791 356.5,220.5C 338.197,218.513 319.53,217.846 300.5,218.5 Z"/></g>
<g><path style="opacity:1" fill="#f19341" d="M 597.5,215.5 C 599.61,219.502 600.943,223.835 601.5,228.5C 599.39,224.498 598.057,220.165 597.5,215.5 Z"/></g>
<g><path style="opacity:1" fill="#324798" d="M 300.5,218.5 C 319.53,217.846 338.197,218.513 356.5,220.5C 355.766,221.708 355.433,223.041 355.5,224.5C 335.66,224.83 315.993,224.497 296.5,223.5C 297.833,221.833 299.167,220.167 300.5,218.5 Z"/></g>
<g><path style="opacity:1" fill="#f29645" d="M 375.5,217.5 C 374.61,223.166 372.943,228.5 370.5,233.5C 371.39,227.834 373.057,222.5 375.5,217.5 Z"/></g>
<g><path style="opacity:1" fill="#7b7fb9" d="M 296.5,223.5 C 315.993,224.497 335.66,224.83 355.5,224.5C 335.337,225.663 315.004,225.829 294.5,225C 295.044,224.283 295.711,223.783 296.5,223.5 Z"/></g>
<g><path style="opacity:1" fill="#f3a04d" d="M 512.5,219.5 C 514.074,221.102 514.741,223.102 514.5,225.5C 512.926,223.898 512.259,221.898 512.5,219.5 Z"/></g>
<g><path style="opacity:1" fill="#f19644" d="M 601.5,228.5 C 603.943,233.5 605.61,238.834 606.5,244.5C 604.057,239.5 602.39,234.166 601.5,228.5 Z"/></g>
<g><path style="opacity:1" fill="#344596" d="M 286.5,233.5 C 308.503,233.333 330.503,233.5 352.5,234C 351.74,235.441 351.074,236.941 350.5,238.5C 327.833,239.833 305.167,239.833 282.5,238.5C 283.857,236.814 285.19,235.148 286.5,233.5 Z"/></g>
<g><path style="opacity:1" fill="#f29845" d="M 370.5,233.5 C 369.943,238.165 368.61,242.498 366.5,246.5C 367.057,241.835 368.39,237.502 370.5,233.5 Z"/></g>
<g><path style="opacity:1" fill="#747ab6" d="M 134.5,237.5 C 134.17,253.342 134.504,269.009 135.5,284.5C 135.44,285.043 135.107,285.376 134.5,285.5C 133.173,269.338 133.173,253.338 134.5,237.5 Z"/></g>
<g><path style="opacity:1" fill="#afafd4" d="M 217.5,239.5 C 218.043,239.56 218.376,239.893 218.5,240.5C 215.914,241.48 213.247,241.813 210.5,241.5C 212.833,240.833 215.167,240.167 217.5,239.5 Z"/></g>
<g><path style="opacity:1" fill="#ee8f2e" d="M 459.5,225.5 C 458.641,231.27 457.308,236.937 455.5,242.5C 476.156,243.5 496.823,243.833 517.5,243.5C 517.167,240.833 516.833,238.167 516.5,235.5C 517.791,237.949 518.791,240.616 519.5,243.5C 497.844,244.5 476.177,244.833 454.5,244.5C 455.409,237.859 457.076,231.526 459.5,225.5 Z"/></g>
<g><path style="opacity:1" fill="#f29745" d="M 606.5,244.5 C 608.61,248.502 609.943,252.835 610.5,257.5C 608.39,253.498 607.057,249.165 606.5,244.5 Z"/></g>
<g><path style="opacity:1" fill="#f19543" d="M 366.5,246.5 C 365.943,251.165 364.61,255.498 362.5,259.5C 363.057,254.835 364.39,250.502 366.5,246.5 Z"/></g>
<g><path style="opacity:1" fill="#f19543" d="M 610.5,257.5 C 612.61,261.502 613.943,265.835 614.5,270.5C 612.39,266.498 611.057,262.165 610.5,257.5 Z"/></g>
<g><path style="opacity:1" fill="#f29846" d="M 362.5,259.5 C 361.61,265.166 359.943,270.5 357.5,275.5C 358.39,269.834 360.057,264.5 362.5,259.5 Z"/></g>
<g><path style="opacity:1" fill="#f19340" d="M 614.5,270.5 C 616.61,274.502 617.943,278.835 618.5,283.5C 616.39,279.498 615.057,275.165 614.5,270.5 Z"/></g>
<g><path style="opacity:1" fill="#f29947" d="M 357.5,275.5 C 356.943,280.165 355.61,284.498 353.5,288.5C 354.057,283.835 355.39,279.502 357.5,275.5 Z"/></g>
<g><path style="opacity:1" fill="#354999" d="M 172.5,320.5 C 170.167,320.5 167.833,320.5 165.5,320.5C 165.5,318.167 165.5,315.833 165.5,313.5C 166.366,296.475 175.032,285.975 191.5,282C 200.16,281.5 208.827,281.334 217.5,281.5C 212.241,301.221 199.908,314.054 180.5,320C 177.854,320.497 175.187,320.664 172.5,320.5 Z"/></g>
<g><path style="opacity:1" fill="#4e5ba5" d="M 336.5,284.5 C 318.833,283.167 301.167,283.167 283.5,284.5C 282.957,284.44 282.624,284.107 282.5,283.5C 300.833,282.167 319.167,282.167 337.5,283.5C 337.376,284.107 337.043,284.44 336.5,284.5 Z"/></g>
<g><path style="opacity:1" fill="#354a9a" d="M 239.5,281.5 C 248.192,281.169 256.859,281.502 265.5,282.5C 259.315,301.185 246.981,313.685 228.5,320C 223.177,320.499 217.844,320.666 212.5,320.5C 211.666,306.345 216.666,294.845 227.5,286C 231.432,283.972 235.432,282.472 239.5,281.5 Z"/></g>
<g><path style="opacity:1" fill="#f0913e" d="M 618.5,283.5 C 620.61,287.502 621.943,291.835 622.5,296.5C 620.39,292.498 619.057,288.165 618.5,283.5 Z"/></g>
<g><path style="opacity:1" fill="#364698" d="M 336.5,284.5 C 335.962,286.117 335.629,287.784 335.5,289.5C 319.153,289.833 302.82,289.499 286.5,288.5C 285.476,287.148 284.476,285.815 283.5,284.5C 301.167,283.167 318.833,283.167 336.5,284.5 Z"/></g>
<g><path style="opacity:1" fill="#f0913f" d="M 353.5,288.5 C 353.277,292.162 352.277,295.495 350.5,298.5C 350.723,294.838 351.723,291.505 353.5,288.5 Z"/></g>
<g><path style="opacity:1" fill="#d4d3e8" d="M 332.5,297.5 C 319.989,297.171 307.655,297.505 295.5,298.5C 294.957,298.44 294.624,298.107 294.5,297.5C 307.327,296.175 319.994,296.175 332.5,297.5 Z"/></g>
<g><path style="opacity:1" fill="#3b4b9b" d="M 295.5,298.5 C 307.655,297.505 319.989,297.171 332.5,297.5C 332.039,299.55 331.372,301.55 330.5,303.5C 320.517,304.666 310.517,304.832 300.5,304C 298.598,302.27 296.931,300.437 295.5,298.5 Z"/></g>
<g><path style="opacity:1" fill="#f19341" d="M 622.5,296.5 C 624.943,301.5 626.61,306.834 627.5,312.5C 625.057,307.5 623.39,302.166 622.5,296.5 Z"/></g>
<g><path style="opacity:1" fill="#f0913f" d="M 350.5,298.5 C 349.61,304.166 347.943,309.5 345.5,314.5C 346.39,308.834 348.057,303.5 350.5,298.5 Z"/></g>
<g><path style="opacity:1" fill="#35499a" d="M 265.5,306.5 C 281.141,304.655 293.141,310.322 301.5,323.5C 292.269,336.458 279.936,341.625 264.5,339C 253.315,333.814 250.148,325.647 255,314.5C 257.975,310.952 261.475,308.286 265.5,306.5 Z"/></g>
<g><path style="opacity:1" fill="#f09e3d" d="M 535.5,311.5 C 534.596,310.791 534.263,309.791 534.5,308.5C 502.833,308.5 471.167,308.5 439.5,308.5C 439.405,310.786 438.738,312.786 437.5,314.5C 437.674,312.139 438.007,309.806 438.5,307.5C 470.833,307.5 503.167,307.5 535.5,307.5C 535.5,308.833 535.5,310.167 535.5,311.5 Z"/></g>
<g><path style="opacity:1" fill="#b0b0d5" d="M 308.5,312.5 C 315.011,311.182 321.678,311.182 328.5,312.5C 328.376,313.107 328.043,313.44 327.5,313.5C 321.355,312.51 315.022,312.177 308.5,312.5 Z"/></g>
<g><path style="opacity:1" fill="#3f4e9c" d="M 308.5,312.5 C 315.022,312.177 321.355,312.51 327.5,313.5C 327.167,315.5 326.833,317.5 326.5,319.5C 318.71,321.09 312.71,318.757 308.5,312.5 Z"/></g>
<g><path style="opacity:1" fill="#f29847" d="M 627.5,312.5 C 629.943,317.5 631.61,322.834 632.5,328.5C 630.057,323.5 628.39,318.166 627.5,312.5 Z"/></g>
<g><path style="opacity:1" fill="#f29745" d="M 345.5,314.5 C 344.61,320.166 342.943,325.5 340.5,330.5C 341.39,324.834 343.057,319.5 345.5,314.5 Z"/></g>
<g><path style="opacity:1" fill="#bfbfdd" d="M 165.5,313.5 C 165.5,315.833 165.5,318.167 165.5,320.5C 167.833,320.5 170.167,320.5 172.5,320.5C 170.052,321.473 167.385,321.806 164.5,321.5C 164.194,318.615 164.527,315.948 165.5,313.5 Z"/></g>
<g><path style="opacity:1" fill="#354999" d="M 164.5,325.5 C 183.637,323.804 198.47,330.804 209,346.5C 213.183,351.866 216.017,357.866 217.5,364.5C 208.827,364.666 200.16,364.5 191.5,364C 181.177,362.343 173.677,356.843 169,347.5C 166.32,340.419 164.82,333.086 164.5,325.5 Z"/></g>
<g><path style="opacity:1" fill="#354999" d="M 212.5,325.5 C 231.361,324.014 246.194,331.014 257,346.5C 260.654,352.139 263.487,358.139 265.5,364.5C 256.827,364.666 248.16,364.5 239.5,364C 229.151,362.309 221.651,356.809 217,347.5C 213.91,340.477 212.41,333.144 212.5,325.5 Z"/></g>
<g><path style="opacity:1" fill="#f29a48" d="M 632.5,328.5 C 634.61,332.502 635.943,336.835 636.5,341.5C 634.39,337.498 633.057,333.165 632.5,328.5 Z"/></g>
<g><path style="opacity:1" fill="#414b9a" d="M 313.5,326.5 C 316.898,326.18 320.232,326.513 323.5,327.5C 322.833,329.167 322.167,330.833 321.5,332.5C 317.205,333.661 312.871,333.828 308.5,333C 310.79,331.223 312.457,329.056 313.5,326.5 Z"/></g>
<g><path style="opacity:1" fill="#f29947" d="M 340.5,330.5 C 339.943,335.165 338.61,339.498 336.5,343.5C 337.057,338.835 338.39,334.502 340.5,330.5 Z"/></g>
<g><path style="opacity:1" fill="#3d4d9b" d="M 300.5,341.5 C 306.5,341.5 312.5,341.5 318.5,341.5C 318.326,343.861 317.993,346.194 317.5,348.5C 310.137,348.831 302.803,348.497 295.5,347.5C 297.19,345.481 298.856,343.481 300.5,341.5 Z"/></g>
<g><path style="opacity:1" fill="#f29845" d="M 636.5,341.5 C 638.61,345.502 639.943,349.835 640.5,354.5C 638.39,350.498 637.057,346.165 636.5,341.5 Z"/></g>
<g><path style="opacity:1" fill="#f29644" d="M 336.5,343.5 C 335.943,348.165 334.61,352.498 332.5,356.5C 333.057,351.835 334.39,347.502 336.5,343.5 Z"/></g>
<g><path style="opacity:1" fill="#f4a351" d="M 544.5,350.5 C 546.074,352.102 546.741,354.102 546.5,356.5C 544.926,354.898 544.259,352.898 544.5,350.5 Z"/></g>
<g><path style="opacity:1" fill="#f0903e" d="M 640.5,354.5 C 642.277,357.505 643.277,360.838 643.5,364.5C 641.723,361.495 640.723,358.162 640.5,354.5 Z"/></g>
<g><path style="opacity:1" fill="#394999" d="M 286.5,356.5 C 295.857,356.168 305.19,356.502 314.5,357.5C 313.253,359.323 312.586,361.323 312.5,363.5C 302.478,363.832 292.478,363.499 282.5,362.5C 284.278,360.736 285.611,358.736 286.5,356.5 Z"/></g>
<g><path style="opacity:1" fill="#a7a8d1" d="M 133.5,360.5 C 134.492,360.328 135.158,360.662 135.5,361.5C 134.566,362.568 134.232,363.901 134.5,365.5C 100.329,365.832 66.3292,365.498 32.5,364.5C 66.1667,364.5 99.8333,364.5 133.5,364.5C 133.5,363.167 133.5,361.833 133.5,360.5 Z"/></g>
<g><path style="opacity:1" fill="#f2a74d" d="M 332.5,356.5 C 332.452,359.313 331.785,361.979 330.5,364.5C 362.16,365.5 393.826,365.833 425.5,365.5C 393.671,366.498 361.671,366.832 329.5,366.5C 329.723,362.838 330.723,359.505 332.5,356.5 Z"/></g>
<g><path style="opacity:1" fill="#f2aa4f" d="M 643.5,364.5 C 644.043,364.56 644.376,364.893 644.5,365.5C 612.336,366.83 580.336,366.83 548.5,365.5C 580.338,365.832 612.004,365.498 643.5,364.5 Z"/></g>
<g><path style="opacity:1" fill="#060606" d="M 264.5,425.5 C 264.5,421.5 264.5,417.5 264.5,413.5C 272.5,413.5 280.5,413.5 288.5,413.5C 288.832,422.525 288.498,431.525 287.5,440.5C 276.438,446.56 264.771,448.06 252.5,445C 236.041,435.903 230.875,422.403 237,404.5C 243.697,391.735 254.197,386.235 268.5,388C 276.524,388.707 283.191,392.04 288.5,398C 284.937,401.233 281.104,404.067 277,406.5C 269.211,399.973 261.545,399.973 254,406.5C 248.633,415.6 249.8,423.767 257.5,431C 262.047,432.545 266.713,432.879 271.5,432C 273.25,430.246 273.917,428.079 273.5,425.5C 270.5,425.5 267.5,425.5 264.5,425.5 Z"/></g>
<g><path style="opacity:1" fill="#040404" d="M 315.5,387.5 C 345.866,386.019 358.033,400.019 352,429.5C 348.13,438.705 341.297,444.205 331.5,446C 308.454,448.998 296.12,438.998 294.5,416C 295.214,401.796 302.214,392.296 315.5,387.5 Z"/></g>
<g><path style="opacity:1" fill="#040404" d="M 512.5,387.5 C 524.978,385.78 535.645,389.28 544.5,398C 540.989,400.847 537.489,403.68 534,406.5C 516.188,396.979 507.521,402.313 508,422.5C 511.609,432.089 518.442,435.256 528.5,432C 530.25,430.246 530.917,428.079 530.5,425.5C 527.167,425.5 523.833,425.5 520.5,425.5C 520.5,421.5 520.5,417.5 520.5,413.5C 528.5,413.5 536.5,413.5 544.5,413.5C 544.832,422.525 544.498,431.525 543.5,440.5C 533.543,446.044 522.877,447.878 511.5,446C 495.484,439.145 488.984,426.979 492,409.5C 493.274,404.286 495.607,399.619 499,395.5C 503.183,392.164 507.683,389.497 512.5,387.5 Z"/></g>
<g><path style="opacity:1" fill="#030303" d="M 624.5,387.5 C 654.395,387.219 665.895,401.552 659,430.5C 654.742,439.094 647.908,444.261 638.5,446C 619.566,449.29 607.4,441.79 602,423.5C 599.671,405.128 607.171,393.128 624.5,387.5 Z"/></g>
<g><path style="opacity:1" fill="#060606" d="M 70.5,388.5 C 70.5,392.833 70.5,397.167 70.5,401.5C 62.6484,401.175 54.9818,401.508 47.5,402.5C 47.5,405.167 47.5,407.833 47.5,410.5C 53.5,410.5 59.5,410.5 65.5,410.5C 65.5,414.833 65.5,419.167 65.5,423.5C 59.5,423.5 53.5,423.5 47.5,423.5C 47.5,426.5 47.5,429.5 47.5,432.5C 55.8333,432.5 64.1667,432.5 72.5,432.5C 72.5,437.167 72.5,441.833 72.5,446.5C 59.1667,446.5 45.8333,446.5 32.5,446.5C 32.5,427.167 32.5,407.833 32.5,388.5C 45.1667,388.5 57.8333,388.5 70.5,388.5 Z"/></g>
<g><path style="opacity:1" fill="#020202" d="M 113.5,419.5 C 113.56,420.043 113.893,420.376 114.5,420.5C 115.499,409.854 115.832,399.187 115.5,388.5C 120.167,388.5 124.833,388.5 129.5,388.5C 129.5,407.5 129.5,426.5 129.5,445.5C 124.5,445.5 119.5,445.5 114.5,445.5C 108.167,435.5 101.833,425.5 95.5,415.5C 95.44,414.957 95.1067,414.624 94.5,414.5C 93.1771,424.659 93.1771,434.659 94.5,444.5C 89.9443,446.442 84.9443,447.108 79.5,446.5C 79.5,427.167 79.5,407.833 79.5,388.5C 84.5111,388.334 89.5111,388.501 94.5,389C 100.719,399.279 107.052,409.445 113.5,419.5 Z"/></g>
<g><path style="opacity:1" fill="#000000" d="M 139.5,388.5 C 151.833,388.5 164.167,388.5 176.5,388.5C 176.5,392.833 176.5,397.167 176.5,401.5C 168.648,401.175 160.982,401.508 153.5,402.5C 153.5,405.167 153.5,407.833 153.5,410.5C 159.31,411.49 165.31,411.823 171.5,411.5C 171.5,415.5 171.5,419.5 171.5,423.5C 165.31,423.177 159.31,423.51 153.5,424.5C 153.5,427.167 153.5,429.833 153.5,432.5C 161.833,432.5 170.167,432.5 178.5,432.5C 178.5,436.833 178.5,441.167 178.5,445.5C 165.5,445.5 152.5,445.5 139.5,445.5C 139.5,426.5 139.5,407.5 139.5,388.5 Z"/></g>
<g><path style="opacity:1" fill="#020202" d="M 186.5,388.5 C 197.231,388.097 207.898,388.597 218.5,390C 228.966,395.451 232.466,403.951 229,415.5C 227.472,420.193 224.638,423.859 220.5,426.5C 224.637,433.136 228.971,439.636 233.5,446C 227.5,446.667 221.5,446.667 215.5,446C 212.333,440.833 209.167,435.667 206,430.5C 204.556,428.845 202.722,428.178 200.5,428.5C 200.5,434.167 200.5,439.833 200.5,445.5C 195.833,445.5 191.167,445.5 186.5,445.5C 186.5,426.5 186.5,407.5 186.5,388.5 Z"/></g>
<g><path style="opacity:1" fill="#020202" d="M 395.5,419.5 C 395.56,420.043 395.893,420.376 396.5,420.5C 397.499,409.854 397.832,399.187 397.5,388.5C 402.167,388.5 406.833,388.5 411.5,388.5C 411.5,407.5 411.5,426.5 411.5,445.5C 406.5,445.5 401.5,445.5 396.5,445.5C 390.259,435.358 383.759,425.358 377,415.5C 376.5,425.828 376.334,436.161 376.5,446.5C 371.5,446.5 366.5,446.5 361.5,446.5C 361.5,427.167 361.5,407.833 361.5,388.5C 366.511,388.334 371.511,388.501 376.5,389C 382.719,399.279 389.052,409.445 395.5,419.5 Z"/></g>
<g><path style="opacity:1" fill="#070707" d="M 455.5,388.5 C 460.875,388.172 466.208,388.505 471.5,389.5C 478.578,408.402 485.244,427.402 491.5,446.5C 486.167,446.5 480.833,446.5 475.5,446.5C 475.041,443.123 474.374,439.789 473.5,436.5C 467.158,436.334 460.825,436.5 454.5,437C 452.998,440.005 451.998,443.171 451.5,446.5C 446.125,446.828 440.792,446.495 435.5,445.5C 442.46,426.585 449.127,407.585 455.5,388.5 Z"/></g>
<g><path style="opacity:1" fill="#030303" d="M 598.5,444.5 C 593.025,445.489 587.358,445.822 581.5,445.5C 578.56,440.053 575.393,434.72 572,429.5C 570.644,428.62 569.144,428.286 567.5,428.5C 567.5,434.5 567.5,440.5 567.5,446.5C 562.5,446.5 557.5,446.5 552.5,446.5C 552.5,427.167 552.5,407.833 552.5,388.5C 562.172,388.334 571.839,388.5 581.5,389C 589.22,390.386 594.053,394.886 596,402.5C 598.103,412.53 595.27,420.697 587.5,427C 591.296,432.761 594.963,438.594 598.5,444.5 Z"/></g>
<g><path style="opacity:1" fill="#5f5f5f" d="M 114.5,388.5 C 114.833,388.5 115.167,388.5 115.5,388.5C 115.832,399.187 115.499,409.854 114.5,420.5C 113.893,420.376 113.56,420.043 113.5,419.5C 114.494,409.347 114.828,399.014 114.5,388.5 Z"/></g>
<g><path style="opacity:1" fill="#808080" d="M 114.5,388.5 C 119.64,387.512 124.974,387.179 130.5,387.5C 130.5,407.167 130.5,426.833 130.5,446.5C 124.974,446.821 119.64,446.488 114.5,445.5C 119.5,445.5 124.5,445.5 129.5,445.5C 129.5,426.5 129.5,407.5 129.5,388.5C 124.833,388.5 120.167,388.5 115.5,388.5C 115.167,388.5 114.833,388.5 114.5,388.5 Z"/></g>
<g><path style="opacity:1" fill="#4c4c4c" d="M 138.5,388.5 C 138.833,388.5 139.167,388.5 139.5,388.5C 139.5,407.5 139.5,426.5 139.5,445.5C 152.5,445.5 165.5,445.5 178.5,445.5C 178.5,441.167 178.5,436.833 178.5,432.5C 179.486,436.97 179.819,441.637 179.5,446.5C 165.833,446.5 152.167,446.5 138.5,446.5C 138.5,427.167 138.5,407.833 138.5,388.5 Z"/></g>
<g><path style="opacity:1" fill="#535353" d="M 186.5,388.5 C 186.5,407.5 186.5,426.5 186.5,445.5C 191.167,445.5 195.833,445.5 200.5,445.5C 195.695,446.487 190.695,446.821 185.5,446.5C 185.17,426.993 185.503,407.659 186.5,388.5 Z"/></g>
<g><path style="opacity:1" fill="#848484" d="M 412.5,388.5 C 412.167,388.5 411.833,388.5 411.5,388.5C 406.833,388.5 402.167,388.5 397.5,388.5C 397.832,399.187 397.499,409.854 396.5,420.5C 395.893,420.376 395.56,420.043 395.5,419.5C 396.494,409.013 396.828,398.346 396.5,387.5C 402.026,387.179 407.36,387.512 412.5,388.5 Z"/></g>
<g><path style="opacity:1" fill="#666666" d="M 411.5,388.5 C 411.833,388.5 412.167,388.5 412.5,388.5C 412.5,407.833 412.5,427.167 412.5,446.5C 406.974,446.821 401.64,446.488 396.5,445.5C 401.5,445.5 406.5,445.5 411.5,445.5C 411.5,426.5 411.5,407.5 411.5,388.5 Z"/></g>
<g><path style="opacity:1" fill="#9d9d9d" d="M 70.5,388.5 C 71.4861,392.97 71.8195,397.637 71.5,402.5C 63.5,402.5 55.5,402.5 47.5,402.5C 54.9818,401.508 62.6484,401.175 70.5,401.5C 70.5,397.167 70.5,392.833 70.5,388.5 Z"/></g>
<g><path style="opacity:1" fill="#919191" d="M 138.5,388.5 C 151.323,387.505 164.323,387.171 177.5,387.5C 177.5,392.5 177.5,397.5 177.5,402.5C 169.5,402.5 161.5,402.5 153.5,402.5C 160.982,401.508 168.648,401.175 176.5,401.5C 176.5,397.167 176.5,392.833 176.5,388.5C 164.167,388.5 151.833,388.5 139.5,388.5C 139.167,388.5 138.833,388.5 138.5,388.5 Z"/></g>
<g><path style="opacity:1" fill="#f8f8f8" d="M 209.5,402.5 C 214.315,404.476 215.481,407.809 213,412.5C 212.184,413.823 211.017,414.489 209.5,414.5C 206.833,414.5 204.167,414.5 201.5,414.5C 201.5,410.5 201.5,406.5 201.5,402.5C 204.167,402.5 206.833,402.5 209.5,402.5 Z"/></g>
<g><path style="opacity:1" fill="#f8f8f8" d="M 320.5,401.5 C 333.489,401.776 339.322,408.443 338,421.5C 334.221,431.307 327.388,434.473 317.5,431C 310.044,424.356 308.544,416.522 313,407.5C 315.114,404.879 317.614,402.879 320.5,401.5 Z"/></g>
<g><path style="opacity:1" fill="#efefef" d="M 567.5,401.5 C 570.518,401.335 573.518,401.502 576.5,402C 579.442,402.94 580.775,404.94 580.5,408C 580.561,410.261 579.894,412.261 578.5,414C 574.974,415.337 571.308,415.837 567.5,415.5C 567.5,410.833 567.5,406.167 567.5,401.5 Z"/></g>
<g><path style="opacity:1" fill="#f7f7f7" d="M 627.5,401.5 C 636.063,400.907 641.896,404.574 645,412.5C 646.586,426.577 640.42,433.077 626.5,432C 618.248,426.515 615.748,419.015 619,409.5C 621.157,406.024 623.99,403.357 627.5,401.5 Z"/></g>
<g><path style="opacity:1" fill="#afafaf" d="M 209.5,402.5 C 206.833,402.5 204.167,402.5 201.5,402.5C 201.5,406.5 201.5,410.5 201.5,414.5C 204.167,414.5 206.833,414.5 209.5,414.5C 206.713,415.477 203.713,415.81 200.5,415.5C 200.5,410.833 200.5,406.167 200.5,401.5C 203.713,401.19 206.713,401.523 209.5,402.5 Z"/></g>
<g><path style="opacity:1" fill="#eaeaea" d="M 468.5,422.5 C 465.375,423.479 462.042,423.813 458.5,423.5C 459.76,418.052 461.427,412.719 463.5,407.5C 465.768,412.304 467.435,417.304 468.5,422.5 Z"/></g>
<g><path style="opacity:1" fill="#7f7f7f" d="M 288.5,413.5 C 280.5,413.5 272.5,413.5 264.5,413.5C 264.5,417.5 264.5,421.5 264.5,425.5C 263.515,421.366 263.182,417.032 263.5,412.5C 272.017,412.174 280.35,412.507 288.5,413.5 Z"/></g>
<g><path style="opacity:1" fill="#333333" d="M 95.5,415.5 C 94.5062,424.986 94.1729,434.652 94.5,444.5C 93.1771,434.659 93.1771,424.659 94.5,414.5C 95.1067,414.624 95.44,414.957 95.5,415.5 Z"/></g>
<g><path style="opacity:1" fill="#7b7b7b" d="M 153.5,410.5 C 159.833,410.5 166.167,410.5 172.5,410.5C 172.5,415.167 172.5,419.833 172.5,424.5C 166.167,424.5 159.833,424.5 153.5,424.5C 159.31,423.51 165.31,423.177 171.5,423.5C 171.5,419.5 171.5,415.5 171.5,411.5C 165.31,411.823 159.31,411.49 153.5,410.5 Z"/></g>
<g><path style="opacity:1" fill="#6f6f6f" d="M 468.5,422.5 C 469.043,422.56 469.376,422.893 469.5,423.5C 465.685,424.808 462.019,424.808 458.5,423.5C 462.042,423.813 465.375,423.479 468.5,422.5 Z"/></g>
<g><path style="opacity:1" fill="#4f4f4f" d="M 598.5,444.5 C 599.043,444.56 599.376,444.893 599.5,445.5C 593.346,446.817 587.346,446.817 581.5,445.5C 587.358,445.822 593.025,445.489 598.5,444.5 Z"/></g>
</svg>
