<svg id="Layer_1" enable-background="new 0 0 496 496" height="512" viewBox="0 0 496 496" width="512" xmlns="http://www.w3.org/2000/svg"><path d="m419.5 0h-304c-26.468 0-48 21.533-48 48v43.025c-21.594.534-39 18.254-39 39.975v14c0 21.721 17.406 39.44 39 39.975v126.051c-21.594.534-39 18.254-39 39.975v14c0 21.721 17.406 39.44 39 39.975v43.024c0 26.467 21.532 48 48 48h304c26.468 0 48-21.533 48-48v-400c0-26.467-21.532-48-48-48zm-359 145v-14c0-4.411 3.589-8 8-8h30c4.411 0 8 3.589 8 8v14c0 4.411-3.589 8-8 8h-30c-4.411 0-8-3.589-8-8zm0 220v-14c0-4.411 3.589-8 8-8h30c4.411 0 8 3.589 8 8v14c0 4.411-3.589 8-8 8h-30c-4.411 0-8-3.589-8-8zm375 83c0 8.822-7.178 16-16 16h-304c-8.822 0-16-7.178-16-16v-43.025c21.594-.534 39-18.254 39-39.975v-14c0-21.721-17.406-39.44-39-39.975v-126.05c21.594-.534 39-18.254 39-39.975v-14c0-21.721-17.406-39.44-39-39.975v-43.025c0-8.822 7.178-16 16-16h304c8.822 0 16 7.178 16 16zm-152.24-195.218c38.76 0 70.293-31.533 70.293-70.293s-31.533-70.293-70.293-70.293-70.293 31.534-70.293 70.293 31.533 70.293 70.293 70.293zm0-108.586c21.115 0 38.293 17.178 38.293 38.293s-17.178 38.293-38.293 38.293-38.293-17.178-38.293-38.293 17.178-38.293 38.293-38.293zm108.74 182.141v31.467c0 8.836-7.163 16-16 16s-16-7.164-16-16v-31.467c0-4.498-2.653-8.589-6.761-10.423l-33.284-14.861h-73.91l-33.284 14.861c-4.107 1.833-6.761 5.925-6.761 10.423v31.467c0 8.836-7.163 16-16 16s-16-7.164-16-16v-31.467c0-17.107 10.094-32.668 25.714-39.643 39.519-17.645 38.368-17.642 42.921-17.642 87.437 0 82.904-.552 87.254 1.39l36.397 16.251c15.62 6.976 25.714 22.537 25.714 39.644z"/></svg>