<svg width="10" height="12" fill="none" xmlns="http://www.w3.org/2000/svg"><path d="M9.375 10.796H.627a.637.637 0 00-.442.177.59.59 0 00-.183.425c0 .16.066.313.183.426A.637.637 0 00.627 12h8.748a.637.637 0 00.442-.176.59.59 0 00.183-.426.59.59 0 00-.183-.425.637.637 0 00-.442-.177zM.628 9.593h.056l2.606-.229a1.27 1.27 0 00.756-.343L9.67 3.606c.218-.222.336-.519.328-.824a1.136 1.136 0 00-.372-.807L7.914.326A1.275 1.275 0 007.09 0a1.28 1.28 0 00-.84.284L.628 5.7a1.185 1.185 0 00-.357.728l-.268 2.51a.581.581 0 00.18.48.627.627 0 00.445.175zM7.045 1.17l1.706 1.64-1.25 1.174-1.674-1.613L7.045 1.17zM1.484 6.53l3.518-3.363L6.689 4.79l-3.5 3.37-1.874.168.169-1.799z" fill="#2E5BFF"/></svg>