<svg width="40" height="40" viewBox="0 0 40 40" fill="none" xmlns="http://www.w3.org/2000/svg">
<path d="M34.1489 5.85154C26.3468 -1.95051 13.6536 -1.95051 5.85154 5.85154C-1.95051 13.6536 -1.95051 26.3468 5.85154 34.1489C13.6536 41.9509 26.3479 41.9498 34.1489 34.1489C41.9498 26.3479 41.9509 13.6536 34.1489 5.85154ZM8.04342 31.957C1.4513 25.3649 1.4502 14.6366 8.04342 8.04342C14.6366 1.4502 25.3649 1.4513 31.957 8.04342C38.5491 14.6355 38.5502 25.3638 31.957 31.957C25.3638 38.5502 14.6366 38.5502 8.04342 31.957Z" fill="#FC5F07"/>
<path d="M26.6745 24.2854L22.2907 19.9016L26.6745 15.5178C27.2795 14.9129 27.2806 13.932 26.6745 13.3259C26.0684 12.7198 25.0875 12.7209 24.4826 13.3259L20.0988 17.7097L15.715 13.3259C15.109 12.7198 14.1281 12.7209 13.5231 13.3259C12.9181 13.9309 12.917 14.9118 13.5231 15.5178L17.9069 19.9016L13.5231 24.2854C12.9181 24.8903 12.917 25.8712 13.5231 26.4773C14.1292 27.0834 15.1101 27.0823 15.715 26.4773L20.0988 22.0935L24.4826 26.4773C25.0886 27.0834 26.0695 27.0823 26.6745 26.4773C27.2795 25.8723 27.2806 24.8914 26.6745 24.2854Z" fill="#FC5F07"/>
</svg>
