<svg width="14" height="14" fill="none" xmlns="http://www.w3.org/2000/svg"><path d="M13.964 11.996a.547.547 0 10-1.07.223.571.571 0 01-.116.48.556.556 0 01-.438.207H1.66a.556.556 0 01-.438-.208.571.571 0 01-.116-.479c.568-2.726 2.972-4.717 5.749-4.784a3.751 3.751 0 00.29 0 6.016 6.016 0 014.86 2.67.547.547 0 10.908-.609 7.114 7.114 0 00-3.686-2.8 3.716 3.716 0 001.492-2.977A3.723 3.723 0 007 0a3.723 3.723 0 00-3.719 3.719c0 1.217.588 2.299 1.494 2.978a7.107 7.107 0 00-4.74 5.3A1.66 1.66 0 001.66 14h10.68a1.66 1.66 0 001.624-2.004zM4.375 3.72A2.628 2.628 0 017 1.094a2.628 2.628 0 012.625 2.625A2.628 2.628 0 017.133 6.34a7.165 7.165 0 00-.265 0 2.628 2.628 0 01-2.493-2.62z" fill="#424552"/></svg>