<svg width="32" height="40" viewBox="0 0 32 40" fill="none" xmlns="http://www.w3.org/2000/svg">
<path d="M27.1999 13.3334V11.6667C27.1999 5.235 22.176 0 16 0C9.82394 0 4.8 5.235 4.8 11.6666V13.3333C2.15362 13.3333 0 15.5766 0 18.3333V35C0 37.7566 2.15362 40 4.8 40H27.2C29.8464 40 32 37.7566 32 35V18.3334C31.9999 15.5766 29.8464 13.3334 27.1999 13.3334ZM7.99994 11.6666C7.99994 7.07164 11.5888 3.33328 16 3.33328C20.4112 3.33328 24 7.07164 24 11.6666V13.3333H7.99994V11.6666ZM28.8 35C28.8 35.92 28.0816 36.6666 27.2 36.6666H4.8C3.91837 36.6666 3.20002 35.92 3.20002 35V18.3334C3.20002 17.4134 3.91845 16.6667 4.8 16.6667H27.2C28.0816 16.6667 28.8 17.4134 28.8 18.3334V35Z" fill="#D3D3D3"/>
<path d="M16 19.1666C13.3536 19.1666 11.2 21.41 11.2 24.1666C11.2 26.3366 12.5424 28.17 14.4 28.86V31.6666C14.4 32.5883 15.1168 33.3333 16 33.3333C16.8832 33.3333 17.5999 32.5883 17.5999 31.6666V28.86C19.4575 28.17 20.8 26.3366 20.8 24.1666C20.8 21.41 18.6463 19.1666 16 19.1666ZM16 25.8334C15.1183 25.8334 14.4 25.0867 14.4 24.1667C14.4 23.2467 15.1183 22.5 16 22.5C16.8816 22.5 17.5999 23.2466 17.5999 24.1666C17.5999 25.0866 16.8816 25.8334 16 25.8334Z" fill="#D3D3D3"/>
</svg>
