<svg width="11" height="14" fill="none" xmlns="http://www.w3.org/2000/svg"><path d="M10.973 10.415a.522.522 0 00-.606-.436.546.546 0 00-.415.638.56.56 0 01-.11.451.504.504 0 01-.4.198H1.558a.504.504 0 01-.4-.198.56.56 0 01-.11-.451c.147-.828.443-1.372.729-1.899.347-.64.706-1.3.706-2.32v-.82c0-1.724 1.33-3.146 2.968-3.171h.098c1.631.025 2.958 1.447 2.958 3.171v.82c0 .868.27 1.465.522 1.956a.516.516 0 00.457.287.496.496 0 00.247-.066.562.562 0 00.21-.741c-.252-.49-.397-.881-.397-1.436v-.82A4.363 4.363 0 008.38 2.585a3.94 3.94 0 00-2.366-1.239v-.8A.534.534 0 005.495 0a.534.534 0 00-.52.547v.8c-1.985.272-3.53 2.076-3.53 4.231v.82c0 .73-.252 1.192-.57 1.777-.313.577-.669 1.231-.848 2.24-.086.482.035.975.333 1.352.297.376.733.592 1.198.592h2.389c0 .905.699 1.641 1.558 1.641.86 0 1.558-.736 1.558-1.64h2.379c.465 0 .902-.217 1.198-.593a1.7 1.7 0 00.333-1.351zm-5.468 2.491a.534.534 0 01-.52-.547h1.04a.534.534 0 01-.52.547z" fill="#424552"/></svg>