<svg width="100" height="127" viewBox="0 0 100 127" fill="none" xmlns="http://www.w3.org/2000/svg">
<path d="M87.2727 16.6394H75.7576V11.4994C75.7576 9.83638 73.9395 9.08056 72.2728 9.08056H63.3336C61.2125 3.03338 55.9094 0.00978861 49.8488 0.00978861C43.8549 -0.215049 38.403 3.45209 36.3639 9.08056H27.5761C25.9094 9.08056 24.2427 9.83638 24.2427 11.4994V16.6394H12.7273C5.90342 16.712 0.32075 22.0832 0 28.8848V115.51C0 122.162 6.06061 127 12.7273 127H87.2727C93.9394 127 100 122.162 100 115.51V28.8851C99.6793 22.0832 94.0966 16.712 87.2727 16.6394ZM30.303 15.1277H38.6364C40.0911 14.9506 41.2596 13.8464 41.5154 12.4065C42.4126 8.50761 45.8408 5.70886 49.8488 5.60353C53.8196 5.72362 57.1961 8.53105 58.0305 12.4065C58.3022 13.8962 59.5478 15.0146 61.0608 15.1277H69.6973V27.2221H30.303V15.1277ZM93.9394 115.511C93.9394 118.837 90.606 120.953 87.2727 120.953H12.7273C9.39397 120.953 6.06061 118.837 6.06061 115.511V28.8851C6.36976 25.4231 9.24432 22.7502 12.7273 22.6869H24.2424V30.397C24.4025 32.091 25.8729 33.3581 27.5758 33.2696H72.2725C74.0068 33.3642 75.5232 32.1144 75.7573 30.397V22.6866H87.2724C90.7551 22.7502 93.63 25.4228 93.9391 28.8848V115.511H93.9394Z" fill="#F6F7F9"/>
<path d="M38.3334 67.587C37.1968 66.3916 35.31 66.3242 34.0908 67.4359L24.3938 76.6577L20.3029 72.4246C19.1664 71.2292 17.2796 71.1621 16.0604 72.2736C14.8867 73.5005 14.8867 75.4308 16.0604 76.6577L22.2724 83.0073C22.8101 83.608 23.5867 83.9402 24.3935 83.9145C25.1928 83.9032 25.9552 83.5771 26.5146 83.0073L38.3328 71.8201C39.5044 70.7477 39.5827 68.9305 38.5077 67.7618C38.4526 67.7007 38.3943 67.6425 38.3334 67.587Z" fill="#F6F7F9"/>
<path d="M81.8182 74.0876H46.9698C45.2962 74.0876 43.9395 75.4413 43.9395 77.1112C43.9395 78.7811 45.2962 80.1348 46.9698 80.1348H81.8182C83.4918 80.1348 84.8485 78.7811 84.8485 77.1112C84.8485 75.4413 83.4918 74.0876 81.8182 74.0876Z" fill="#F6F7F9"/>
<path d="M38.3334 43.3983C37.1968 42.2029 35.31 42.1355 34.0908 43.2472L24.3938 52.469L20.3029 48.2359C19.1664 47.0405 17.2796 46.9731 16.0604 48.0848C14.8867 49.3118 14.8867 51.2421 16.0604 52.469L22.2724 58.8186C22.8101 59.4193 23.5867 59.7515 24.3935 59.7258C25.1928 59.7145 25.9552 59.3884 26.5146 58.8186L38.3328 47.6314C39.5044 46.559 39.5827 44.7418 38.5077 43.573C38.4526 43.512 38.3943 43.4538 38.3334 43.3983Z" fill="#F6F7F9"/>
<path d="M81.8182 49.8989H46.9698C45.2962 49.8989 43.9395 51.2525 43.9395 52.9225C43.9395 54.5924 45.2962 55.9461 46.9698 55.9461H81.8182C83.4918 55.9461 84.8485 54.5924 84.8485 52.9225C84.8485 51.2525 83.4918 49.8989 81.8182 49.8989Z" fill="#F6F7F9"/>
<path d="M38.3334 91.7754C37.1968 90.58 35.31 90.5129 34.0908 91.6244L24.3938 100.846L20.3029 96.613C19.1664 95.4177 17.2796 95.3505 16.0604 96.462C14.8867 97.6889 14.8867 99.6193 16.0604 100.846L22.2724 107.196C22.8101 107.796 23.5867 108.129 24.3935 108.103C25.1928 108.092 25.9552 107.766 26.5146 107.196L38.3328 96.0086C39.5044 94.9362 39.5827 93.1189 38.5077 91.9502C38.4526 91.8894 38.3943 91.8313 38.3334 91.7754Z" fill="#F6F7F9"/>
<path d="M81.8182 98.2763H46.9698C45.2962 98.2763 43.9395 99.63 43.9395 101.3C43.9395 102.97 45.2962 104.323 46.9698 104.323H81.8182C83.4918 104.323 84.8485 102.97 84.8485 101.3C84.8485 99.63 83.4918 98.2763 81.8182 98.2763Z" fill="#F6F7F9"/>
</svg>
