<svg width="14" height="14" fill="none" xmlns="http://www.w3.org/2000/svg"><path d="M7 3.828A3.175 3.175 0 003.828 7a3.175 3.175 0 004.13 3.024.547.547 0 00-.33-1.042 2.078 2.078 0 111.367-1.397.547.547 0 101.05.307A3.176 3.176 0 007 3.828z" fill="#424552"/><path d="M12.36 5.086h-.276a.182.182 0 01-.167-.115l-.004-.011a.183.183 0 01.035-.201l.195-.195c.64-.64.64-1.68 0-2.32l-.386-.387a1.63 1.63 0 00-1.16-.48c-.439 0-.85.17-1.16.48l-.195.195a.183.183 0 01-.201.036l-.01-.005a.183.183 0 01-.117-.167v-.275C8.914.736 8.178 0 7.274 0h-.547c-.905 0-1.641.736-1.641 1.64v.276a.182.182 0 01-.116.167l-.01.004a.183.183 0 01-.201-.035l-.195-.195a1.63 1.63 0 00-1.16-.48c-.439 0-.85.17-1.16.48l-.387.387c-.64.64-.64 1.68 0 2.32l.195.194c.05.052.065.13.035.204l-.004.008a.183.183 0 01-.167.116h-.275C.736 5.086 0 5.822 0 6.726v.547c0 .905.736 1.641 1.64 1.641h.276c.072 0 .138.046.167.115l.004.011c.03.071.016.15-.035.201l-.195.195c-.31.31-.48.722-.48 1.16 0 .438.17.85.48 1.16l.387.387c.31.31.721.48 1.16.48.438 0 .85-.17 1.16-.48l.194-.195a.183.183 0 01.201-.036l.01.005a.183.183 0 01.117.167v.275c0 .905.736 1.641 1.64 1.641h.547c.905 0 1.641-.736 1.641-1.64v-.276c0-.072.046-.138.116-.167l.01-.005a.184.184 0 01.201.036l.195.195c.31.31.722.48 1.16.48.439 0 .85-.17 1.16-.48l.387-.387c.31-.31.48-.722.48-1.16 0-.438-.17-.85-.48-1.16l-.195-.195a.183.183 0 01-.036-.2l.005-.01a.183.183 0 01.167-.117h.275c.905 0 1.641-.736 1.641-1.64v-.547c0-.905-.736-1.641-1.64-1.641zm.546 2.187a.547.547 0 01-.547.547h-.275c-.517 0-.98.311-1.178.793l-.004.008c-.2.482-.092 1.029.273 1.394l.195.195a.543.543 0 010 .773l-.387.387a.543.543 0 01-.773 0l-.195-.195a1.274 1.274 0 00-1.394-.273l-.008.004a1.273 1.273 0 00-.793 1.178v.275a.547.547 0 01-.547.547h-.546a.547.547 0 01-.547-.547v-.275c0-.517-.311-.98-.793-1.178l-.008-.004a1.268 1.268 0 00-1.394.273l-.195.195a.543.543 0 01-.773 0l-.387-.387a.543.543 0 010-.773l.195-.195c.365-.365.472-.912.273-1.394l-.004-.008a1.273 1.273 0 00-1.178-.793h-.275a.547.547 0 01-.547-.547v-.546c0-.302.245-.547.547-.547h.275c.517 0 .98-.311 1.179-.795l.003-.006c.2-.481.093-1.028-.273-1.394L2.63 3.79a.547.547 0 010-.773l.387-.387a.544.544 0 01.773 0l.195.195a1.27 1.27 0 001.394.272l.008-.003c.482-.199.793-.661.793-1.178v-.275c0-.302.245-.547.547-.547h.546c.302 0 .547.245.547.547v.275c0 .517.311.98.793 1.178l.008.004c.481.2 1.028.093 1.394-.273l.195-.195a.543.543 0 01.773 0l.387.387a.548.548 0 010 .773l-.195.195a1.273 1.273 0 00-.273 1.392l.004.01c.199.482.661.793 1.178.793h.275c.302 0 .547.245.547.547v.546z" fill="#424552"/></svg>